# xmcd CD database file
#
# Track frame offsets:
#	150
#	12140
#	27445
#	41142
#	61490
#	73505
#	90087
#	105655
#	119217
#	136985
#	157092
#	168282
#	185437
#	195435
#	208180
#
# Disc length: 2938 seconds
#
# Revision: 0
# Processed by: cddbd v1.5.2PL0 Copyright (c) Steve Scherf et al.
# Submitted via: CDex 1.51
#
DISCID=d00b780f
DTITLE=Paddy Cole - King Of The Swingers
DYEAR=1900
DGENRE=Jazz
TTITLE0=Ice Cream
TTITLE1=Minnie The Moocher
TTITLE2=Creole Jazz
TTITLE3=Lazy River
TTITLE4=Henry Jones
TTITLE5=Muskrat Ramble
TTITLE6=Blueberry Hill
TTITLE7=Bourbon Street
TTITLE8=Stalkin'
TTITLE9=King of the Swingers
TTITLE10=Royal Garden Blues
TTITLE11=Bouna Sera
TTITLE12=Magee Shuffle
TTITLE13=Jungle King
TTITLE14=Yes Sir
EXTD=
EXTT0=
EXTT1=
EXTT2=
EXTT3=
EXTT4=
EXTT5=
EXTT6=
EXTT7=
EXTT8=
EXTT9=
EXTT10=
EXTT11=
EXTT12=
EXTT13=
EXTT14=
PLAYORDER=
